<?xml version="1.0" standalone="no"?>
<!DOCTYPE svg PUBLIC "-//W3C//DTD SVG 20010904//EN"
 "http://www.w3.org/TR/2001/REC-SVG-20010904/DTD/svg10.dtd">
<svg version="1.0" xmlns="http://www.w3.org/2000/svg"
 width="1079.000000pt" height="1032.000000pt" viewBox="0 0 1079.000000 1032.000000"
 preserveAspectRatio="xMidYMid meet">

<g transform="translate(0.000000,1032.000000) scale(0.100000,-0.100000)"
fill="#000000" stroke="none">
<path d="M4840 9500 c-839 -78 -1584 -357 -2260 -849 -403 -292 -782 -689
-1068 -1117 -287 -430 -526 -980 -621 -1429 -11 -55 -25 -119 -31 -142 -5 -23
-7 -49 -4 -58 3 -8 1 -15 -5 -15 -9 0 -9 -5 -1 -21 9 -17 8 -25 -7 -42 -16
-19 -16 -20 0 -8 14 11 17 11 17 -1 0 -8 -5 -19 -10 -24 -8 -8 -6 -15 4 -23
12 -10 13 -9 9 10 -4 14 -2 20 4 16 7 -5 9 0 6 13 -6 22 28 43 35 22 2 -7 10
-12 18 -12 9 0 12 5 9 10 -3 6 1 10 9 10 9 0 16 8 17 18 0 15 2 14 10 -3 8
-16 8 -14 5 11 -3 18 -2 35 2 38 3 4 8 19 10 33 2 15 8 35 14 46 7 15 7 18 -2
12 -7 -4 -5 4 4 17 9 14 14 33 10 42 -3 9 -2 16 3 16 6 0 16 26 22 58 21 91
98 335 151 471 202 527 524 1038 894 1419 l70 72 1676 0 c1074 0 1718 -4 1795
-11 773 -67 1402 -619 1561 -1372 34 -164 44 -441 20 -598 -8 -58 -19 -114
-22 -124 -5 -13 -4 -16 5 -11 8 5 7 -3 -4 -24 -9 -18 -12 -29 -7 -26 6 4 14 1
18 -5 4 -7 3 -9 -3 -6 -6 4 -16 1 -22 -7 -9 -10 -7 -17 6 -27 15 -12 16 -12 9
6 -5 15 -4 17 4 8 9 -8 9 -16 1 -30 -6 -10 -11 -12 -11 -5 0 6 -5 12 -11 12
-6 0 -8 -9 -4 -21 6 -16 4 -20 -6 -14 -8 5 -5 -1 6 -12 19 -20 20 -20 29 -2 9
18 21 19 170 17 146 -3 161 -5 160 -20 -1 -10 2 -15 7 -12 5 3 9 11 8 17 -1 7
0 19 4 27 17 47 26 83 21 91 -3 5 -1 9 5 9 5 0 10 8 9 18 0 9 3 31 6 47 20
109 26 180 26 335 0 268 -27 443 -107 685 -138 415 -415 790 -775 1047 -257
185 -545 307 -873 370 -109 22 -125 22 -1677 25 -863 2 -1568 7 -1568 11 0 12
233 173 378 260 1010 611 2233 779 3374 466 997 -273 1871 -906 2442 -1769
220 -331 369 -632 496 -1000 42 -123 114 -381 131 -470 5 -27 14 -69 21 -92
11 -37 13 -40 26 -25 7 9 11 11 7 5 -10 -20 4 -36 20 -23 7 6 20 8 29 4 11 -4
16 -1 16 10 0 9 4 16 9 16 6 0 7 -16 4 -37 -4 -26 -3 -34 5 -29 7 4 12 16 12
27 0 12 4 17 11 13 8 -4 8 -1 1 12 -5 11 -13 48 -16 83 -9 85 -85 380 -141
547 -214 636 -558 1200 -1024 1678 -718 735 -1611 1180 -2641 1317 -135 17
-225 22 -500 24 -184 2 -378 -1 -430 -5z m4727 -3602 c-3 -8 -6 -5 -6 6 -1 11
2 17 5 13 3 -3 4 -12 1 -19z"/>
<path d="M5348 6711 c-75 -24 -119 -53 -167 -107 -129 -146 -127 -350 4 -501
20 -24 43 -43 51 -43 8 0 14 -4 14 -10 0 -10 65 -43 86 -43 8 0 14 -3 14 -7 0
-4 6 -7 13 -8 135 -17 194 -9 277 36 54 29 101 72 94 84 -3 5 0 7 6 6 20 -5
78 111 89 177 28 161 -64 332 -215 402 -75 34 -187 40 -266 14z"/>
<path d="M9502 5820 c-9 -20 -11 -21 -11 -6 -1 11 -3 17 -6 14 -4 -3 -3 -18 1
-32 l6 -27 14 27 c8 15 13 32 10 38 -2 6 -8 0 -14 -14z"/>
<path d="M7148 5796 c10 -21 42 -31 42 -14 0 5 -6 8 -12 5 -7 -2 -19 3 -26 12
-12 14 -12 14 -4 -3z"/>
</g>
</svg>
